<?xml version="1.0" encoding="UTF-8"?>
<svg id="Logo" xmlns="http://www.w3.org/2000/svg" viewBox="0 0 700.37 109.3">
  <defs>
    <style>
      .cls-1 {
        fill: #fff;
      }

      .cls-2 {
        fill: #ffc42e;
      }
    </style>
  </defs>
  <g>
    <path class="cls-2" d="m574.18,15.7v8.9h-8v50.8h8v8.9h-25.8v-8.9h8V24.6h-8v-8.9h25.8Z"/>
    <path class="cls-2" d="m627.47,19.45c4.27,2.5,7.57,6.07,9.9,10.7,2.33,4.63,3.5,10.08,3.5,16.35v7c0,6.27-1.17,11.72-3.5,16.35-2.33,4.63-5.63,8.2-9.9,10.7-4.27,2.5-9.27,3.75-15,3.75h-23.8V15.7h23.8c5.73,0,10.73,1.25,15,3.75Zm-29,5.15v50.8h14c5.93,0,10.52-1.85,13.75-5.55,3.23-3.7,4.85-9.15,4.85-16.35v-7c0-7.07-1.58-12.48-4.75-16.25-3.17-3.77-7.78-5.65-13.85-5.65h-14Z"/>
    <path class="cls-2" d="m684.92,34c2.97,1.2,5.27,2.87,6.9,5,1.63,2.13,2.45,4.5,2.45,7.1l-.1,1.8h-9.3v-.9c0-4.87-3.77-7.3-11.3-7.3s-11.2,2.23-11.2,6.7c0,2.07,1.06,3.58,3.2,4.55,2.13.97,5.4,1.88,9.8,2.75,4.2.87,7.65,1.77,10.35,2.7,2.7.93,5,2.4,6.9,4.4,1.9,2,2.85,4.7,2.85,8.1,0,5.47-1.87,9.57-5.6,12.3-3.73,2.73-9.1,4.1-16.1,4.1h-1.5c-4.2,0-7.87-.65-11-1.95-3.13-1.3-5.55-3.07-7.25-5.3-1.7-2.23-2.52-4.75-2.45-7.55v-2.2h9.3v1c0,5.67,4.77,8.5,14.3,8.5,2.8,0,5.32-.63,7.55-1.9,2.23-1.27,3.35-3,3.35-5.2,0-1.87-.62-3.33-1.85-4.4-1.23-1.07-2.75-1.87-4.55-2.4-1.8-.53-4.3-1.07-7.5-1.6-4.13-.8-7.47-1.62-10-2.45-2.53-.83-4.7-2.25-6.5-4.25-1.8-2-2.7-4.73-2.7-8.2,0-4.73,1.87-8.45,5.6-11.15,3.73-2.7,8.83-4.05,15.3-4.05h.9c3.8,0,7.18.6,10.15,1.8Z"/>
  </g>
  <g>
    <path class="cls-1" d="m48.4,18c4,2.2,7.08,5.35,9.25,9.45,2.17,4.1,3.25,8.95,3.25,14.55h-9.8c0-5.8-1.43-10.32-4.3-13.55-2.87-3.23-7-4.85-12.4-4.85-6,0-10.57,1.85-13.7,5.55-3.13,3.7-4.7,9.15-4.7,16.35v9c0,7.13,1.53,12.57,4.6,16.3,3.07,3.73,7.6,5.6,13.6,5.6,5.6,0,9.88-1.6,12.85-4.8,2.97-3.2,4.45-7.67,4.45-13.4h9.4c0,5.53-1.08,10.33-3.25,14.4-2.17,4.07-5.25,7.2-9.25,9.4s-8.67,3.3-14,3.3c-8.87,0-15.79-2.72-20.75-8.15-4.97-5.43-7.45-12.98-7.45-22.65v-9c0-9.6,2.48-17.13,7.45-22.6,4.96-5.47,11.88-8.2,20.75-8.2,5.33,0,10,1.1,14,3.3Z"/>
    <path class="cls-1" d="m112.1,38.8c4.27,4.4,6.4,10.43,6.4,18.1v3.7c0,7.67-2.1,13.7-6.3,18.1-4.2,4.4-9.93,6.6-17.2,6.6s-13-2.2-17.2-6.6c-4.2-4.4-6.3-10.43-6.3-18.1v-3.7c0-7.67,2.13-13.7,6.4-18.1,4.27-4.4,9.97-6.6,17.1-6.6s12.83,2.2,17.1,6.6Zm-27.5,5.5c-2.47,3.07-3.7,7.57-3.7,13.5v1.9c0,5.8,1.22,10.27,3.65,13.4,2.43,3.13,5.92,4.7,10.45,4.7s7.85-1.55,10.35-4.65c2.5-3.1,3.75-7.58,3.75-13.45v-1.9c0-5.8-1.22-10.27-3.65-13.4-2.43-3.13-5.92-4.7-10.45-4.7s-7.93,1.53-10.4,4.6Z"/>
    <path class="cls-1" d="m170.4,36.7c3.2,3,4.8,7.4,4.8,13.2v34.4h-9.4v-32.7c0-7.93-3.6-11.9-10.8-11.9-2.4,0-4.63.63-6.7,1.9-2.07,1.27-3.73,2.98-5,5.15-1.27,2.17-1.9,4.55-1.9,7.15v30.4h-9.4v-51.1h6.8l1.3,7.5c4.27-5.67,9.96-8.5,17.1-8.5,5.6,0,10,1.5,13.2,4.5Z"/>
    <path class="cls-1" d="m229.7,36.7c3.2,3,4.8,7.4,4.8,13.2v34.4h-9.4v-32.7c0-7.93-3.6-11.9-10.8-11.9-2.4,0-4.63.63-6.7,1.9-2.07,1.27-3.73,2.98-5,5.15-1.27,2.17-1.9,4.55-1.9,7.15v30.4h-9.4v-51.1h6.8l1.3,7.5c4.27-5.67,9.96-8.5,17.1-8.5,5.6,0,10,1.5,13.2,4.5Z"/>
    <path class="cls-1" d="m282.25,34.85c3.23,1.77,5.75,4.29,7.55,7.55,1.8,3.27,2.7,7.07,2.7,11.4v7.1h-35.7c.13,5.4,1.4,9.57,3.8,12.5,2.4,2.93,5.97,4.4,10.7,4.4,4.2,0,7.3-1.23,9.3-3.7,2-2.46,3-5.4,3-8.8h8.9c0,4-.92,7.5-2.75,10.5-1.83,3-4.37,5.33-7.6,7-3.23,1.67-6.92,2.5-11.05,2.5h-.4c-7.2,0-12.88-2.32-17.05-6.95-4.17-4.63-6.25-10.82-6.25-18.55v-2c0-5.07.93-9.53,2.8-13.4,1.87-3.87,4.53-6.87,8-9,3.46-2.13,7.53-3.2,12.2-3.2h.7c4.2,0,7.92.88,11.15,2.65Zm-20.9,8.35c-2.37,2.33-3.82,5.8-4.35,10.4h26.2v-1.2c0-3.8-1.15-6.87-3.45-9.2-2.3-2.33-5.35-3.5-9.15-3.5s-6.88,1.17-9.25,3.5Z"/>
    <path class="cls-1" d="m337.15,34.85c3.23,1.77,5.75,4.25,7.55,7.45s2.7,6.87,2.7,11h-9.3c0-4.13-1.05-7.43-3.15-9.9-2.1-2.47-5.12-3.7-9.05-3.7-4.13,0-7.42,1.38-9.85,4.15-2.43,2.77-3.65,6.55-3.65,11.35v5.4c0,5.8,1.2,10.12,3.6,12.95,2.4,2.83,5.8,4.25,10.2,4.25,4.07,0,7.12-1.22,9.15-3.65,2.03-2.43,3.05-5.72,3.05-9.85h9c0,6.4-1.92,11.5-5.75,15.3-3.83,3.8-8.95,5.7-15.35,5.7h-.8c-4.53,0-8.5-1.05-11.9-3.15-3.4-2.1-6.02-5.05-7.85-8.85-1.83-3.8-2.75-8.23-2.75-13.3v-2.4c0-5.07.93-9.52,2.8-13.35,1.87-3.83,4.5-6.8,7.9-8.9,3.4-2.1,7.3-3.15,11.7-3.15h.8c4.07,0,7.72.88,10.95,2.65Z"/>
    <path class="cls-1" d="m371.59,33.2h11.9v7.5h-11.9v30.5c0,2.4.47,4.13,1.4,5.2.93,1.07,2.37,1.6,4.3,1.6,1.73,0,3.8-.5,6.2-1.5v7c-2.4,1.2-5.5,1.8-9.3,1.8s-6.92-1.17-8.95-3.5c-2.03-2.33-3.05-6.03-3.05-11.1v-30h-5.6v-7.5h5.9l3.2-16.3h5.9v16.3Z"/>
    <path class="cls-1" d="m404.79,12.3v8.7h-9.8v-8.7h9.8Zm-.2,20.9v51.1h-9.4v-51.1h9.4Z"/>
    <path class="cls-1" d="m459.59,36.7c3.2,3,4.8,7.4,4.8,13.2v34.4h-9.4v-32.7c0-7.93-3.6-11.9-10.8-11.9-2.4,0-4.63.63-6.7,1.9-2.07,1.27-3.73,2.98-5,5.15-1.27,2.17-1.9,4.55-1.9,7.15v30.4h-9.4v-51.1h6.8l1.3,7.5c4.27-5.67,9.96-8.5,17.1-8.5,5.6,0,10,1.5,13.2,4.5Z"/>
    <path class="cls-1" d="m524.59,32.55c-1.8,2.3-4.3,3.78-7.5,4.45l-.2.3c3.33,2.93,5,6.6,5,11,0,4.8-1.8,8.67-5.4,11.6-3.6,2.93-8.5,4.4-14.7,4.4h-6.8c-2,0-3.67.52-5,1.55-1.33,1.04-2,2.35-2,3.95s.63,2.87,1.9,3.8c1.27.93,2.97,1.4,5.1,1.4h19.3c3.93,0,7.08,1.23,9.45,3.7,2.37,2.47,3.55,5.6,3.55,9.4,0,4.53-1.72,8.17-5.15,10.9-3.43,2.73-8.05,4.1-13.85,4.1h-20.1c-2.27,0-4.35-.6-6.25-1.8s-3.4-2.72-4.5-4.55c-1.1-1.83-1.65-3.72-1.65-5.65,0-2.8.68-5.23,2.05-7.3,1.37-2.07,3.18-3.6,5.45-4.6-3.07-1.87-4.6-4.63-4.6-8.3,0-2.4.7-4.47,2.1-6.2,1.4-1.73,3.37-3.03,5.9-3.9-4.47-2.47-6.7-6.63-6.7-12.5,0-4.93,1.82-8.85,5.45-11.75,3.63-2.9,8.68-4.35,15.15-4.35h.4c3.73,0,7.13.57,10.2,1.7,4.73-2.33,7.43-5.63,8.1-9.9h8c0,3.4-.9,6.25-2.7,8.55Zm-33.7,51.45c-1.6,0-2.97.57-4.1,1.7-1.13,1.13-1.7,2.5-1.7,4.1s.57,2.97,1.7,4.1c1.13,1.13,2.5,1.7,4.1,1.7h19.3c2.13,0,3.97-.62,5.5-1.85,1.53-1.23,2.3-2.65,2.3-4.25s-.57-3-1.7-4c-1.13-1-2.73-1.5-4.8-1.5h-20.6Zm1.55-42.25c-2.1,1.37-3.15,3.55-3.15,6.55s1.05,5.17,3.15,6.5c2.1,1.33,4.92,2,8.45,2s6.37-.67,8.5-2c2.13-1.33,3.2-3.5,3.2-6.5s-1.07-5.18-3.2-6.55c-2.13-1.37-4.97-2.05-8.5-2.05s-6.35.68-8.45,2.05Z"/>
  </g>
</svg>